# WaveFront *.obj file (generated by Autodesk ATF)

mtllib Ramp_and_Mound.mtl

g Ramp_and_Mound

v -1.000000 1.000000 -3.500000
v 1.000000 1.000000 -3.500000
v 1.000000 1.000000 -5.500000
v -1.000000 1.000000 -5.500000
v 1.000000 0.000000 -5.500000
v -1.000000 0.000000 -5.500000
v 1.000000 0.000000 3.500000
v -1.000000 0.000000 3.500000
vt 0.000000 0.000000 0.000000
vt 200.000000 0.000000 0.000000
vt 0.000000 200.000000 0.000000
vt 200.000000 200.000000 0.000000
vt 0.000000 0.000000 0.000000
vt 200.000000 0.000000 0.000000
vt 0.000000 100.000000 0.000000
vt 200.000000 100.000000 0.000000
vt 353.553391 150.000000 0.000000
vt -353.553391 150.000000 0.000000
vt 353.553391 -50.000000 0.000000
vt -353.553391 -50.000000 0.000000
vt 0.000000 0.000000 0.000000
vt 900.000000 0.000000 0.000000
vt 700.000000 100.000000 0.000000
vt 900.000000 100.000000 0.000000
vt 700.000000 0.000000 0.000000
vt -0.000000 100.000000 0.000000
vt -200.000000 0.000000 0.000000
vt -200.000000 100.000000 0.000000
vt -100.000000 -350.000000 0.000000
vt 100.000000 -350.000000 0.000000
vt -100.000000 550.000000 0.000000
vt 100.000000 550.000000 0.000000
vn 0.000000 100.000000 0.000000
vn 0.000000 100.000000 0.000000
vn 0.000000 100.000000 0.000000
vn 0.000000 100.000000 0.000000
vn 0.000000 0.000000 -100.000000
vn 0.000000 0.000000 -100.000000
vn 0.000000 0.000000 -100.000000
vn 0.000000 0.000000 -100.000000
vn 0.000000 98.994949 14.142136
vn 0.000000 98.994949 14.142136
vn 0.000000 98.994949 14.142136
vn 0.000000 98.994949 14.142136
vn 100.000000 -0.000000 0.000000
vn 100.000000 -0.000000 0.000000
vn 100.000000 -0.000000 0.000000
vn 100.000000 -0.000000 0.000000
vn -100.000000 0.000000 -0.000000
vn -100.000000 0.000000 -0.000000
vn -100.000000 0.000000 -0.000000
vn -100.000000 0.000000 -0.000000
vn 0.000000 -100.000000 0.000000
vn 0.000000 -100.000000 0.000000
vn 0.000000 -100.000000 0.000000
vn 0.000000 -100.000000 0.000000
usemtl Pine
f 1/1/1 2/2/2 4/3/3
f 4/3/3 2/2/2 3/4/4
f 5/5/5 6/6/6 3/7/7
f 3/7/7 6/6/6 4/8/8
f 7/9/9 2/10/10 8/11/11
f 8/11/11 2/10/10 1/12/12
f 7/13/13 5/14/14 2/15/15
f 2/15/15 5/14/14 3/16/16
f 8/17/17 1/18/18 6/19/19
f 6/19/19 1/18/18 4/20/20
f 7/21/21 8/22/22 5/23/23
f 5/23/23 8/22/22 6/24/24
# 8 vertices
# 24 texture params
# 24 normals
# 12 facets

# 1 groups
